<svg width="102" height="40" viewBox="0 0 102 40" fill="none" xmlns="http://www.w3.org/2000/svg">
<path d="M93.5808 13.7404L78.9391 13.1668C78.2208 13.1668 77.3595 12.8791 76.7859 12.5923L67.4548 6.27743C61.7136 2.39999 54.9672 0.390625 47.9331 0.390625H34.4404C31.2829 0.390625 28.2676 1.2519 25.5408 2.83062L11.7604 10.7259C11.4736 10.8689 11.1859 11.0128 10.8991 11.0128L7.02335 11.1557C5.44378 11.1557 3.86591 11.7302 2.71697 12.8783C1.56803 14.0281 0.850586 15.4638 0.850586 17.1864V22.354C0.850586 28.3821 5.73059 33.4068 11.9034 33.4068H13.0523C14.6302 36.7089 17.9314 39.1481 21.8072 39.1481C25.6829 39.1481 29.128 36.8511 30.5629 33.4068H72.4787C74.0591 36.7089 77.3595 39.1481 81.2361 39.1481C85.1119 39.1481 88.557 36.8511 89.9919 33.4068H90.2795C96.3085 33.4068 101.332 28.5259 101.332 22.354C101.763 17.4732 98.174 13.8834 93.5808 13.7404ZM12.7646 31.9711H12.0463C8.17059 31.9711 4.72548 29.6749 3.14676 26.3728H12.9085C12.6208 27.234 12.477 28.2391 12.477 29.2434C12.477 30.1047 12.6217 31.1098 12.7646 31.9711ZM30.134 31.9711C29.991 32.4017 29.8472 32.6893 29.7034 33.12C28.2685 35.8468 25.397 37.7123 22.2395 37.7123C19.0821 37.7123 16.0668 35.8459 14.6319 33.1191C14.4872 32.8323 14.3451 32.4017 14.2012 31.9711C13.9144 31.1098 13.6276 30.1047 13.6276 29.1004C13.6276 28.0962 13.7706 27.091 14.2012 26.2298C14.3451 25.7991 14.4889 25.5115 14.6319 25.0808C16.0668 22.354 18.9382 20.4885 22.0965 20.4885C25.2557 20.4885 28.1255 22.3549 29.5604 25.0817C29.7034 25.3685 29.848 25.7991 29.9919 26.2298C30.2787 27.091 30.5655 28.0962 30.5655 29.1004C30.5655 30.1047 30.4217 31.1098 30.134 31.9711ZM72.4795 31.9711H31.2821C31.5689 31.1098 31.7136 30.1047 31.7136 29.1004C31.7136 28.0962 31.5689 27.091 31.2821 26.2298H72.4795C72.1927 27.091 72.0497 28.0962 72.0497 29.1004C72.0497 30.1047 72.1927 31.1098 72.4795 31.9711ZM89.7051 31.9711C89.5621 32.4017 89.4183 32.6893 89.2744 33.12C87.8395 35.8468 84.968 37.7123 81.8106 37.7123C78.5085 37.7123 75.6378 35.8459 74.3468 33.1191C74.2021 32.8323 74.0591 32.4017 73.9153 31.9711C73.6276 31.1098 73.3408 30.1047 73.3408 29.1004C73.3408 28.0962 73.4855 27.091 73.9153 26.2298C74.0591 25.7991 74.2021 25.5115 74.3459 25.0808C75.7817 22.354 78.6523 20.4885 81.8097 20.4885C84.9672 20.4885 87.8395 22.3549 89.2744 25.0817C89.4183 25.3685 89.5621 25.7991 89.7051 26.2298C89.9919 27.091 90.2795 28.0962 90.2795 29.1004C90.1357 30.1055 89.9919 31.1098 89.7051 31.9711ZM90.8531 31.9711C91.1408 31.1098 91.2846 30.1047 91.2846 29.1004C91.2846 28.0962 91.1408 27.091 90.8531 26.2298H99.6097C98.814 27.8955 97.5771 29.3113 96.0333 30.3235C94.4896 31.3357 92.698 31.9055 90.8531 31.9711ZM90.4234 25.2247C88.8438 21.9225 85.5417 19.4825 81.6668 19.4825C77.7919 19.4825 74.3459 21.7796 72.911 25.2247H30.8506C29.271 21.9225 25.9697 19.4825 22.094 19.4825C18.2182 19.4825 14.7731 21.7796 13.3382 25.2247H2.71612C2.4226 24.3456 2.27736 23.4238 2.28633 22.497H5.15697C5.30577 22.4865 5.44576 22.4226 5.55117 22.317C5.65657 22.2114 5.72029 22.0714 5.73059 21.9225C5.72009 21.7739 5.65629 21.634 5.5509 21.5286C5.44552 21.4232 5.30564 21.3594 5.15697 21.3489H2.28633V17.7608H5.15697C5.30577 17.7503 5.44576 17.6864 5.55117 17.5808C5.65657 17.4753 5.72029 17.3352 5.73059 17.1864C5.72029 17.0376 5.65657 16.8975 5.55117 16.7919C5.44576 16.6863 5.30577 16.6224 5.15697 16.6119H2.42931C2.57229 15.4638 3.00293 14.3157 3.8642 13.4545C4.72548 12.5932 6.01739 12.1617 7.16633 12.1617H7.31016L11.1859 12.0187C11.6174 12.0187 12.191 11.8757 12.6217 11.5881L26.4021 3.54977C28.9859 2.11488 31.8565 1.2536 34.728 1.2536H48.2208C54.9672 1.2536 61.4268 3.26211 67.0251 6.99488L76.3553 13.3098C77.2102 13.7461 78.1317 14.0374 79.0821 14.1719L93.7238 14.7455C96.3085 14.8885 98.4608 16.1813 99.6097 18.1906H94.0114C93.8627 18.2015 93.7228 18.2655 93.6173 18.3709C93.5118 18.4764 93.4478 18.6163 93.437 18.7651C93.4473 18.914 93.5112 19.054 93.6168 19.1595C93.7224 19.2649 93.8626 19.3286 94.0114 19.3387H100.183C100.471 20.2 100.758 21.0613 100.758 22.0664C100.758 23.2153 100.615 24.2196 100.183 25.2238H90.4225L90.4234 25.2247Z" fill="black"/>
<path d="M12.7646 31.9711H12.0463C8.17059 31.9711 4.72548 29.6749 3.14676 26.3728H12.9085C12.6208 27.234 12.477 28.2391 12.477 29.2434C12.477 30.1047 12.6217 31.1098 12.7646 31.9711ZM12.7646 31.9711H12.7655M93.5808 13.7404L78.9391 13.1668C78.2208 13.1668 77.3595 12.8791 76.7859 12.5923L67.4548 6.27743C61.7136 2.39999 54.9672 0.390625 47.9331 0.390625H34.4404C31.2829 0.390625 28.2676 1.2519 25.5408 2.83062L11.7604 10.7259C11.4736 10.8689 11.1859 11.0128 10.8991 11.0128L7.02335 11.1557C5.44378 11.1557 3.86591 11.7302 2.71697 12.8783C1.56803 14.0281 0.850586 15.4638 0.850586 17.1864V22.354C0.850586 28.3821 5.73059 33.4068 11.9034 33.4068H13.0523C14.6302 36.7089 17.9314 39.1481 21.8072 39.1481C25.6829 39.1481 29.128 36.8511 30.5629 33.4068H72.4787C74.0591 36.7089 77.3595 39.1481 81.2361 39.1481C85.1119 39.1481 88.557 36.8511 89.9919 33.4068H90.2795C96.3085 33.4068 101.332 28.5259 101.332 22.354C101.763 17.4732 98.174 13.8834 93.5808 13.7404ZM30.134 31.9711C29.991 32.4017 29.8472 32.6893 29.7034 33.12C28.2685 35.8468 25.397 37.7123 22.2395 37.7123C19.0821 37.7123 16.0668 35.8459 14.6319 33.1191C14.4872 32.8323 14.3451 32.4017 14.2012 31.9711C13.9144 31.1098 13.6276 30.1047 13.6276 29.1004C13.6276 28.0962 13.7706 27.091 14.2012 26.2298C14.3451 25.7991 14.4889 25.5115 14.6319 25.0808C16.0668 22.354 18.9382 20.4885 22.0965 20.4885C25.2557 20.4885 28.1255 22.3549 29.5604 25.0817C29.7034 25.3685 29.848 25.7991 29.9919 26.2298C30.2787 27.091 30.5655 28.0962 30.5655 29.1004C30.5655 30.1047 30.4217 31.1098 30.134 31.9711ZM72.4795 31.9711H31.2821C31.5689 31.1098 31.7136 30.1047 31.7136 29.1004C31.7136 28.0962 31.5689 27.091 31.2821 26.2298H72.4795C72.1927 27.091 72.0497 28.0962 72.0497 29.1004C72.0497 30.1047 72.1927 31.1098 72.4795 31.9711ZM89.7051 31.9711C89.5621 32.4017 89.4183 32.6893 89.2744 33.12C87.8395 35.8468 84.968 37.7123 81.8106 37.7123C78.5085 37.7123 75.6378 35.8459 74.3468 33.1191C74.2021 32.8323 74.0591 32.4017 73.9153 31.9711C73.6276 31.1098 73.3408 30.1047 73.3408 29.1004C73.3408 28.0962 73.4855 27.091 73.9153 26.2298C74.0591 25.7991 74.2021 25.5115 74.3459 25.0808C75.7817 22.354 78.6523 20.4885 81.8097 20.4885C84.9672 20.4885 87.8395 22.3549 89.2744 25.0817C89.4183 25.3685 89.5621 25.7991 89.7051 26.2298C89.9919 27.091 90.2795 28.0962 90.2795 29.1004C90.1357 30.1055 89.9919 31.1098 89.7051 31.9711ZM90.8531 31.9711C91.1408 31.1098 91.2846 30.1047 91.2846 29.1004C91.2846 28.0962 91.1408 27.091 90.8531 26.2298H99.6097C98.814 27.8955 97.5771 29.3113 96.0333 30.3235C94.4896 31.3357 92.698 31.9055 90.8531 31.9711ZM90.4234 25.2247C88.8438 21.9225 85.5417 19.4825 81.6668 19.4825C77.7919 19.4825 74.3459 21.7796 72.911 25.2247H30.8506C29.271 21.9225 25.9697 19.4825 22.094 19.4825C18.2182 19.4825 14.7731 21.7796 13.3382 25.2247H2.71612C2.4226 24.3456 2.27736 23.4238 2.28633 22.497H5.15697C5.30577 22.4865 5.44576 22.4226 5.55117 22.317C5.65657 22.2114 5.72029 22.0714 5.73059 21.9225C5.72009 21.7739 5.65629 21.634 5.5509 21.5286C5.44552 21.4232 5.30564 21.3594 5.15697 21.3489H2.28633V17.7608H5.15697C5.30577 17.7503 5.44576 17.6864 5.55117 17.5808C5.65657 17.4753 5.72029 17.3352 5.73059 17.1864C5.72029 17.0376 5.65657 16.8975 5.55117 16.7919C5.44576 16.6863 5.30577 16.6224 5.15697 16.6119H2.42931C2.57229 15.4638 3.00293 14.3157 3.8642 13.4545C4.72548 12.5932 6.01739 12.1617 7.16633 12.1617H7.31016L11.1859 12.0187C11.6174 12.0187 12.191 11.8757 12.6217 11.5881L26.4021 3.54977C28.9859 2.11488 31.8565 1.2536 34.728 1.2536H48.2208C54.9672 1.2536 61.4268 3.26211 67.0251 6.99488L76.3553 13.3098C77.2102 13.7461 78.1317 14.0374 79.0821 14.1719L93.7238 14.7455C96.3085 14.8885 98.4608 16.1813 99.6097 18.1906H94.0114C93.8627 18.2015 93.7228 18.2655 93.6173 18.3709C93.5118 18.4764 93.4478 18.6163 93.437 18.7651C93.4473 18.914 93.5112 19.054 93.6168 19.1595C93.7224 19.2649 93.8626 19.3286 94.0114 19.3387H100.183C100.471 20.2 100.758 21.0613 100.758 22.0664C100.758 23.2153 100.615 24.2196 100.183 25.2238H90.4225L90.4234 25.2247Z" stroke="black" stroke-width="0.3"/>
</svg>
