<svg width="102" height="40" viewBox="0 0 102 40" fill="none" xmlns="http://www.w3.org/2000/svg">
<path d="M93.9755 14.2223L67.918 13.7907C66.0472 13.7907 64.3197 13.2148 62.7363 12.0632L55.9697 7.02398C50.6447 2.99315 44.0222 0.833984 37.2555 0.833984C31.3522 0.833984 25.4497 2.56148 20.4113 5.72898L11.7747 11.1998C11.4863 11.3432 11.1988 11.4873 10.9105 11.4873L7.02384 11.6315C5.29634 11.6315 3.85717 12.2065 2.70551 13.359C1.55217 14.5107 0.833008 15.9507 0.833008 17.6773V22.8606C0.833008 28.9065 5.72801 33.9448 11.918 33.9448H13.0705C14.6538 37.2565 17.9647 39.7032 21.8513 39.7032C25.738 39.7032 29.193 37.4007 30.633 33.9448H72.6697C74.253 37.2565 77.5638 39.7032 81.4513 39.7032C85.338 39.7032 88.793 37.4007 90.2322 33.9448H90.5205C96.5672 33.9448 101.606 29.0506 101.606 22.8598C102.181 17.9648 98.5822 14.3665 93.9755 14.2223ZM12.9255 32.5057H12.2063C10.342 32.4994 8.51694 31.9698 6.93889 30.9771C5.36085 29.9844 4.09327 28.5685 3.28051 26.8907H13.0705C12.7822 27.7548 12.6388 28.7623 12.6388 29.7698C12.6388 30.634 12.7822 31.4965 12.9263 32.5048L12.9255 32.5057ZM30.3447 32.5057C30.2013 32.9365 30.0572 33.2248 29.913 33.6573C28.473 36.3923 25.5947 38.264 22.4272 38.264C20.8564 38.264 19.3154 37.8349 17.9707 37.0231C16.626 36.2112 15.5287 35.0474 14.7972 33.6573C14.6538 33.369 14.5088 32.9373 14.3655 32.5048C14.0772 31.6415 13.7897 30.634 13.7897 29.6265C13.7897 28.6181 13.933 27.6098 14.3655 26.7473C14.5088 26.3157 14.6538 26.0282 14.7972 25.5957C16.2372 22.8598 19.1163 20.9881 22.283 20.9881C25.4497 20.9881 28.3288 22.8598 29.7688 25.5957C29.9122 25.8832 30.0572 26.3148 30.2005 26.7473C30.4888 27.6115 30.7763 28.619 30.7763 29.6265C30.7763 30.634 30.633 31.4981 30.3447 32.5057ZM72.813 32.5057H31.4963C31.7847 31.6415 31.928 30.634 31.928 29.6265C31.928 28.6181 31.7847 27.6098 31.4972 26.7473H72.8138C72.5255 27.6115 72.3813 28.619 72.3813 29.6265C72.3813 30.634 72.5255 31.4981 72.813 32.5057ZM90.0888 32.5057C89.9447 32.9365 89.8005 33.2248 89.6563 33.6573C88.2172 36.3923 85.3372 38.264 82.1705 38.264C78.8597 38.264 75.9805 36.3923 74.6847 33.6573C74.5413 33.369 74.3963 32.9373 74.253 32.5048C73.9655 31.6415 73.6772 30.634 73.6772 29.6265C73.6772 28.6181 73.8205 27.6098 74.253 26.7473C74.3963 26.3157 74.5413 26.0282 74.6847 25.5957C76.1247 22.8598 79.0038 20.9881 82.1705 20.9881C85.4822 20.9881 88.2172 22.8598 89.6563 25.5957C89.8005 25.8832 89.9447 26.3148 90.0888 26.7473C90.3763 27.6115 90.6647 28.619 90.6647 29.6265C90.5205 30.634 90.3763 31.4981 90.0888 32.5057ZM91.2397 32.3615C91.528 31.4981 91.6722 30.4898 91.6722 29.4823C91.6722 28.4748 91.528 27.4673 91.2397 26.604H100.022C98.4388 30.059 95.1272 32.3615 91.2397 32.3615ZM90.808 25.5948C89.2247 22.284 85.9138 19.8365 82.0272 19.8365C78.1405 19.8365 74.6847 22.1398 73.2447 25.5948H31.0647C29.4813 22.284 26.1697 19.8365 22.283 19.8365C18.3963 19.8365 14.9413 22.1398 13.5013 25.5948H2.84967C2.55514 24.7134 2.40926 23.7891 2.41801 22.8598H5.29717C5.44644 22.8493 5.58689 22.7853 5.69269 22.6795C5.7985 22.5737 5.86253 22.4332 5.87301 22.284C5.86236 22.1348 5.79827 21.9944 5.6925 21.8887C5.58673 21.7829 5.44637 21.7188 5.29717 21.7082H2.41634V18.1082H5.29551C5.44464 18.0977 5.58498 18.0338 5.69077 17.9282C5.79655 17.8225 5.86067 17.6823 5.87134 17.5331C5.86088 17.3838 5.79688 17.2432 5.69109 17.1373C5.58531 17.0314 5.44484 16.9672 5.29551 16.9565H2.56051C2.70467 15.8048 3.13717 14.654 4.00051 13.7898C4.86467 12.9257 6.16051 12.494 7.31217 12.494H7.45551L11.343 12.3507C11.8536 12.342 12.3519 12.1926 12.783 11.919L21.4188 6.44815C26.3138 3.42482 31.928 1.69815 37.543 1.69815C44.0213 1.69815 50.3547 3.85732 55.538 7.60065L62.3047 12.639C64.0322 13.934 66.0463 14.5098 68.063 14.6548L94.1197 15.0865C96.7105 15.2298 98.8705 16.5257 100.022 18.5406H94.408C94.2584 18.5508 94.1175 18.6148 94.0115 18.7208C93.9055 18.8269 93.8415 18.9677 93.8313 19.1173C93.8425 19.2664 93.9069 19.4065 94.0128 19.512C94.1187 19.6176 94.2589 19.6815 94.408 19.6923H100.598C100.886 20.5573 101.173 21.4207 101.173 22.4282C101.173 23.5807 101.03 24.5882 100.598 25.5948H90.808Z" fill="black" stroke="black" stroke-width="0.3"/>
</svg>
