<svg width="68" height="40" viewBox="0 0 68 40" fill="none" xmlns="http://www.w3.org/2000/svg">
<path d="M67.1013 27.9965L65.7663 20.124C65.4996 18.789 64.4329 17.5882 63.0979 17.3215L52.2896 14.9199C51.7554 14.7865 51.2221 14.5199 50.8213 14.119L41.8813 4.5107C39.7463 2.2432 36.8104 0.908203 33.6079 0.908203H17.1946C10.7896 0.908203 5.31792 5.4457 4.11709 11.8499L0.916257 29.3307C0.64959 30.5315 1.04959 31.7332 1.84959 32.6674C2.24797 33.1261 2.73982 33.4943 3.29215 33.7474C3.84448 34.0005 4.44454 34.1326 5.05209 34.1349H5.85209C7.18792 37.4715 10.3896 39.8724 14.2604 39.8724C17.9963 39.8724 21.3321 37.4707 22.6663 34.1349H45.0829C46.4179 37.4715 49.6196 39.8724 53.4896 39.8724C57.2254 39.8724 60.5613 37.4707 61.8963 34.1349H63.0963C64.2979 34.1349 65.3654 33.7349 66.1663 32.8007C66.9663 31.999 67.4996 30.9324 67.4996 29.7315L67.0996 27.9965H67.1013ZM5.05126 33.2007C4.11792 33.2007 3.31792 32.8007 2.64959 32.134C2.11626 31.4665 1.84959 30.5324 1.98292 29.5982L2.11626 28.7982H5.45209C5.31876 29.4649 5.18542 30.2649 5.18542 30.9324C5.18542 31.7324 5.31876 32.4007 5.45209 33.2015H5.05209L5.05126 33.2007ZM21.7321 33.2007C21.7321 33.334 21.5988 33.6007 21.5988 33.7349C21.5988 33.869 21.4654 34.1349 21.3321 34.269C20.1321 37.0715 17.3296 38.939 14.1263 38.939C10.9238 38.939 8.12126 37.0715 6.92042 34.269C6.78709 34.1357 6.78709 33.869 6.65376 33.7357C6.65376 33.6024 6.52042 33.3357 6.52042 33.2007C6.25376 32.534 6.12042 31.7332 6.12042 30.9324C6.11132 30.2013 6.24728 29.4756 6.52042 28.7974C6.52042 28.664 6.65376 28.3974 6.65376 28.264C6.65376 28.1299 6.78709 27.864 6.78709 27.7299C7.98792 24.9274 10.7904 22.9257 13.9929 22.9257C17.1954 22.9257 19.9979 24.9274 21.1988 27.7299C21.3321 27.8632 21.3321 28.1299 21.3321 28.2632C21.3321 28.3965 21.4654 28.6632 21.4654 28.7974C21.5988 29.4649 21.8654 30.2657 21.8654 30.9324C21.9988 31.7324 21.8654 32.3999 21.7321 33.2007ZM22.7988 33.2007C22.9321 32.534 23.0654 31.7332 23.0654 30.9324C23.0654 30.1324 22.9321 29.464 22.7988 28.7974H44.5504C44.4171 29.4649 44.2838 30.2657 44.2838 30.9324C44.2838 31.7324 44.4171 32.4007 44.5504 33.2015H22.7996L22.7988 33.2007ZM60.8288 33.2007C60.8288 33.334 60.6954 33.6007 60.6954 33.7349C60.6954 33.869 60.5621 34.1349 60.4288 34.269C59.2288 37.0715 56.4263 38.939 53.2229 38.939C50.0204 38.939 47.2188 37.0715 46.0179 34.269C45.8846 34.1357 45.8846 33.869 45.7513 33.7357C45.7513 33.6024 45.6179 33.3357 45.6179 33.2007C45.3513 32.534 45.2179 31.7332 45.2179 30.9324C45.2088 30.2013 45.3448 29.4756 45.6179 28.7974C45.6179 28.664 45.7513 28.3974 45.7513 28.264C45.7513 28.1299 45.8846 27.864 45.8846 27.7299C47.0846 24.9274 49.8871 22.9257 53.0904 22.9257C56.2929 22.9257 59.0946 24.9274 60.2954 27.7299C60.4288 27.8632 60.4288 28.1299 60.4288 28.2632C60.4288 28.3965 60.5621 28.6632 60.5621 28.7974C60.6954 29.4649 60.9629 30.2657 60.9629 30.9324C61.2296 31.7324 61.0963 32.4007 60.8296 33.2015L60.8288 33.2007ZM53.2229 21.9924C49.3538 21.9924 46.1513 24.394 44.8163 27.7299H22.3988C21.0638 24.3932 17.8621 21.9915 13.9921 21.9915C10.1213 21.9915 6.91959 24.394 5.58542 27.7299H2.11626L3.31626 20.924H6.25209C6.51876 20.924 6.78542 20.6574 6.78542 20.3899C6.78542 20.1232 6.51876 19.8565 6.25209 19.8565H3.58292L3.84959 18.2549H6.51876C6.78542 18.2549 7.05209 17.9882 7.05209 17.7215C7.05209 17.4549 6.78542 17.1874 6.51876 17.1874H3.98292L4.91709 11.8499C5.98459 5.9782 11.0554 1.8407 16.9271 1.8407H33.3396C36.1421 1.8407 38.9438 3.04154 40.8121 5.04404L49.7521 14.6515C50.2863 15.1849 50.9529 15.5849 51.7538 15.7182L62.5629 18.1207C63.4963 18.254 64.1629 18.9215 64.2971 19.8557H60.2946C60.0279 19.8557 59.7604 20.1224 59.7604 20.389C59.7604 20.6574 60.0271 20.924 60.2938 20.924H64.4313L65.6313 27.5957H61.2279C60.2946 24.3924 57.0913 21.9915 53.2221 21.9915H53.2238L53.2229 21.9924ZM66.0329 29.8649C66.0329 30.799 65.6329 31.5999 65.0996 32.2674C64.4329 32.934 63.6321 33.2007 62.6979 33.2007H61.8971C62.0304 32.534 62.1638 31.7332 62.1638 30.9324C62.1638 30.1324 62.0304 29.464 61.8971 28.7974H66.0329V29.8649Z" fill="black" stroke="black" stroke-width="0.3"/>
</svg>
