<svg width="101" height="40" viewBox="0 0 101 40" fill="none" xmlns="http://www.w3.org/2000/svg">
<path d="M92.8238 14.0773L71.4638 12.084C70.8947 12.084 70.1822 11.799 69.6122 11.6565L54.6605 4.53648C49.6772 2.11565 43.9805 0.833984 38.4272 0.833984C28.458 0.833984 18.918 4.53648 11.6547 11.0873C11.3697 11.229 11.0855 11.3723 10.7997 11.3723L6.95467 11.514C5.38884 11.3723 3.82217 12.084 2.68301 13.2223C1.54384 14.3623 0.833008 15.7865 0.833008 17.4956V22.6223C0.833008 28.6031 5.67467 33.5865 11.798 33.5865H12.9363C14.503 36.8615 17.778 39.2831 21.6238 39.2831C25.468 39.2831 28.8863 37.0048 30.3105 33.5865H75.1655C76.7322 36.8615 80.0072 39.2831 83.8522 39.2831C87.9822 39.2831 91.3997 36.7198 92.8238 33.1606C97.3805 31.8782 100.656 27.6065 100.656 22.7648C100.941 17.7815 97.3805 14.2207 92.8238 14.0773ZM12.6522 32.1615H11.9405C10.0966 32.1554 8.29139 31.6318 6.73046 30.6501C5.16953 29.6685 3.91557 28.2683 3.11134 26.609H12.7947C12.5113 27.464 12.368 28.4606 12.368 29.4573C12.2263 30.3123 12.368 31.1657 12.6522 32.1632V32.1615ZM29.883 32.1615C29.7413 32.589 29.598 32.874 29.4555 33.3006C28.7321 34.6757 27.6468 35.8269 26.3167 36.6299C24.9867 37.433 23.4625 37.8574 21.9088 37.8573C18.6338 37.8573 15.7855 36.0056 14.5038 33.3006C14.3622 33.0165 14.2188 32.589 14.0763 32.1615C13.7913 31.3073 13.5072 30.3106 13.5072 29.3132C13.5072 28.3165 13.6488 27.3198 14.0763 26.4657C14.218 26.0382 14.3613 25.754 14.5038 25.3265C15.928 22.6215 18.7763 20.7698 21.9088 20.7698C25.1838 20.7698 27.8897 22.6215 29.313 25.3265C29.4555 25.6115 29.5988 26.0382 29.7405 26.4657C30.0255 27.3198 30.3105 28.3165 30.3105 29.314C30.3105 30.3106 30.1688 31.3073 29.883 32.1615ZM75.0238 32.1615H31.0222C31.3072 31.3073 31.4488 30.3106 31.4488 29.3132C31.4488 28.3165 31.3072 27.3198 31.0222 26.4657H75.0238C74.7397 27.3198 74.5963 28.3165 74.5963 29.314C74.5963 30.3106 74.7397 31.1648 75.0238 32.1615ZM92.1122 31.8781C91.9688 32.3048 91.8272 32.7323 91.6847 33.0165C90.2605 35.8648 87.4122 37.7156 84.138 37.7156C80.863 37.7156 78.0138 35.864 76.733 33.1581C76.5897 32.8748 76.448 32.4473 76.3055 32.0198C76.0205 31.1648 75.7363 30.1682 75.7363 29.1715C75.7363 28.1748 75.878 27.1782 76.3055 26.3232C76.4472 25.8957 76.5897 25.6115 76.733 25.184C78.1572 22.4781 81.0047 20.6273 84.138 20.6273C87.4122 20.6273 90.1188 22.479 91.5422 25.184C91.6847 25.4698 91.8272 25.8957 91.9688 26.3232C92.2538 27.1782 92.5397 28.1748 92.5397 29.1715C92.5478 30.0909 92.4034 31.0061 92.1122 31.8781ZM93.393 31.4498C93.5363 30.7381 93.678 30.0265 93.678 29.314C93.678 28.3173 93.5363 27.3207 93.2513 26.4665H98.8047C97.808 28.7448 95.8138 30.5956 93.393 31.4498ZM92.8238 25.3273C91.2572 22.0523 87.9822 19.6315 84.138 19.6315C80.2938 19.6315 76.8755 21.9107 75.4513 25.3273H30.5938C29.0272 22.0523 25.7522 19.6315 21.9072 19.6315C18.0622 19.6315 14.6447 21.9107 13.2205 25.3273H2.68467C2.39321 24.4556 2.24874 23.5414 2.25717 22.6223H5.10551C5.25308 22.6117 5.39186 22.5482 5.4964 22.4435C5.60094 22.3388 5.66423 22.1999 5.67467 22.0523C5.66404 21.9049 5.60066 21.7662 5.49614 21.6617C5.39162 21.5572 5.25294 21.4938 5.10551 21.4832H2.25717V17.9232H5.10551C5.25294 17.9125 5.39162 17.8491 5.49614 17.7446C5.60066 17.6401 5.66404 17.5014 5.67467 17.354C5.66423 17.2064 5.60094 17.0675 5.4964 16.9628C5.39186 16.8581 5.25308 16.7946 5.10551 16.784H2.39967C2.54217 15.6448 2.96967 14.5057 3.82467 13.6515C4.67884 12.7982 5.95968 12.3698 7.09968 12.3698H7.24134L11.0872 12.2282C11.5922 12.2193 12.0849 12.0713 12.5113 11.8007C19.6313 5.39232 29.0288 1.83232 38.713 1.83232C44.1238 1.83232 49.5355 3.11398 54.5188 5.39232L69.4713 12.5123C70.183 12.7973 70.8955 13.0823 71.6072 13.0823L92.9663 15.0757C95.5305 15.2173 97.6663 16.5007 98.8055 18.4932H93.2522C93.1046 18.5041 92.966 18.5677 92.8613 18.6723C92.7567 18.7769 92.6932 18.9156 92.6822 19.0632C92.6935 19.2105 92.7572 19.3489 92.8618 19.4533C92.9663 19.5577 93.1048 19.6212 93.2522 19.6323H99.3747C99.6597 20.4873 99.9447 21.3407 99.9447 22.3373C99.9447 23.4765 99.8022 24.4732 99.3747 25.4706H92.8247V25.3281L92.8238 25.3273Z" fill="black" stroke="black" stroke-width="0.3"/>
</svg>
