<svg width="90" height="40" viewBox="0 0 90 40" fill="none" xmlns="http://www.w3.org/2000/svg">
<path d="M88.7089 16.3311C88.1778 15.5251 87.1165 14.9873 85.5225 14.7175C82.9999 14.3141 78.3531 14.0451 74.6348 13.777C72.1114 13.6426 69.988 13.3736 69.1906 13.3736C68.5268 13.2392 67.9957 13.1047 67.4646 12.7013L61.2238 5.57874C58.3029 2.22044 54.0536 0.337891 49.6714 0.337891H17.274C12.6263 0.337891 8.37696 2.89108 6.11994 6.92342L2.40164 13.5081C0.809301 16.3311 0.544621 19.6902 1.60505 22.6468L3.59654 28.2902V29.6349C3.46377 31.1124 3.46377 32.3226 4.26122 33.1285C4.65951 33.5319 5.32334 33.8009 6.25271 33.8009H10.7676C12.0953 37.16 15.2816 39.5796 19.1336 39.5796C22.851 39.5796 26.1702 37.16 27.4978 33.8009H66.0042C67.3319 37.16 70.5191 39.5796 74.3702 39.5796C78.0876 39.5796 81.4076 37.16 82.7344 33.8009H87.6476C87.7812 33.8009 87.9131 33.8009 88.0468 33.6664C88.1795 33.5311 88.1787 33.3975 88.1787 33.263V27.6187C88.1787 25.6026 88.5778 23.7209 88.9753 22.1081C89.1089 19.6894 89.6399 17.6741 88.7097 16.3294L88.7089 16.3311ZM6.11994 32.7268C5.45611 32.7268 5.05781 32.5915 4.92505 32.3234C4.5259 31.92 4.5259 30.8443 4.65951 29.6349V28.2911H10.3685C10.2357 28.9634 10.1029 29.7694 10.1029 30.4417C10.1029 31.2477 10.2357 31.92 10.3685 32.7268H6.11994ZM26.4348 32.7268C26.4348 32.8604 26.3021 33.1302 26.3021 33.2638C26.3021 33.3983 26.1693 33.6673 26.0365 33.8017C24.8416 36.623 22.0536 38.5056 18.8663 38.5056C15.6799 38.5056 12.8919 36.6247 11.6961 33.8017C11.5642 33.6664 11.5633 33.3983 11.4306 33.2638C11.4306 33.1294 11.2978 32.8604 11.2978 32.7268C11.0323 32.0545 10.8987 31.2485 10.8987 30.4417C10.8987 29.6358 11.0314 28.9634 11.2978 28.2911C11.2978 28.1575 11.4306 27.8877 11.4306 27.7541C11.4306 27.6196 11.5642 27.3507 11.5642 27.2162C12.7591 24.3941 15.5472 22.3787 18.7344 22.3787C21.9208 22.3787 24.7089 24.3941 25.9046 27.2162C26.0365 27.3515 26.0365 27.6196 26.0365 27.7541C26.0365 27.8877 26.1702 28.1575 26.1702 28.2911C26.3029 28.9634 26.5685 29.7694 26.5685 30.4417C26.834 31.2477 26.7021 31.92 26.4365 32.7268H26.4348ZM27.4978 32.7268C27.6306 32.0545 27.7633 31.2485 27.7633 30.4417C27.7633 29.6358 27.6297 28.9634 27.4978 28.2911H65.3395C65.2076 28.9634 65.074 29.7694 65.074 30.4417C65.074 31.2477 65.2076 31.92 65.3395 32.7268H27.4978ZM81.5387 32.7268C81.5387 32.8604 81.4068 33.1302 81.4068 33.2638C81.4068 33.3983 81.2731 33.6673 81.1412 33.8017C79.9463 36.623 77.1582 38.5056 73.971 38.5056C70.7838 38.5056 67.9957 36.6247 66.8008 33.8017C66.668 33.6664 66.668 33.3983 66.5353 33.2638C66.5353 33.1294 66.4016 32.8604 66.4016 32.7268C66.1361 32.0545 66.0042 31.2485 66.0042 30.4417C66.0042 29.6358 66.1361 28.9634 66.4016 28.2911C66.4016 28.1575 66.5353 27.8877 66.5353 27.7541C66.5353 27.6196 66.668 27.3507 66.668 27.2162C67.8629 24.3941 70.651 22.3787 73.8374 22.3787C77.0238 22.3787 79.8127 24.3941 81.0076 27.2162C81.1412 27.3515 81.1412 27.6196 81.1412 27.7541C81.1412 27.8877 81.2731 28.1575 81.2731 28.2911C81.4068 28.9634 81.6723 29.7694 81.6723 30.4417C81.9378 31.2477 81.805 31.92 81.5387 32.7268ZM86.7174 32.7268H82.6016C82.7344 32.0545 82.8672 31.2485 82.8672 30.4417C82.8672 29.6358 82.7344 28.9634 82.6016 28.2911H86.7174V32.7268ZM87.6468 21.8417C87.2485 23.4545 86.851 25.3353 86.851 27.2162H82.3361C81.0085 23.857 77.8212 21.4375 73.9702 21.4375C70.1208 21.4375 66.9336 23.857 65.605 27.2162H27.0987C25.771 23.857 22.5846 21.4375 18.7327 21.4375C14.8825 21.4375 11.6961 23.857 10.3685 27.2162H4.1276L2.40164 22.2434C2.00249 21.1685 1.87058 20.0928 1.87058 19.1532H5.05696C5.32249 19.1532 5.58803 18.8843 5.58803 18.6153C5.58803 18.3464 5.32249 18.0783 5.05696 18.0783H1.87058C2.0042 16.6 2.40164 15.2562 3.06632 13.9115L6.78292 7.32683C8.90802 3.56342 12.7582 1.27917 17.0076 1.27917H49.405C53.5216 1.27917 57.5055 3.0264 60.1608 6.11747L66.5344 13.3745L66.6672 13.5081C67.331 13.9115 68.1276 14.3141 68.9242 14.3141C69.7208 14.4494 71.9787 14.583 74.5012 14.7175C78.2187 14.9864 82.8663 15.3898 85.2561 15.6587C86.5846 15.7932 87.3812 16.1966 87.7795 16.8681C88.4425 17.943 88.0451 19.6902 87.6459 21.8409L87.6468 21.8417Z" fill="black" stroke="black" stroke-width="0.3"/>
</svg>
