<svg width="94" height="38" viewBox="0 0 94 38" fill="none" xmlns="http://www.w3.org/2000/svg">
<path d="M88.5488 15.9246L85.403 14.7928C81.7542 13.4075 78.1054 11.8982 74.5813 10.137L65.0202 5.48117C58.7287 2.46182 51.8077 0.826172 44.8876 0.826172H8.27459C6.7645 0.826172 5.3808 1.45565 4.24824 2.46182C0.976107 5.73313 0.724977 13.1572 0.850542 16.051V22.8447C0.850542 28.2556 5.12802 32.533 10.5389 32.533H11.5451C12.9296 35.4268 15.8234 37.5656 19.2202 37.5656C22.6179 37.5656 25.6373 35.5524 26.8954 32.533H67.9148C69.2985 35.4268 72.1922 37.5656 75.5891 37.5656C78.9868 37.5656 82.007 35.5524 83.2651 32.533H83.5162C88.8016 32.533 93.2046 28.13 93.2046 22.8447C93.2046 19.8253 91.317 17.0571 88.5488 15.9246ZM10.4125 31.6533C8.27293 31.6533 6.26059 30.7718 4.7505 29.5137H10.7908C10.7908 30.2687 10.9164 31.0238 11.1684 31.6533H10.4133H10.4125ZM26.6443 29.3881C26.6443 30.1423 26.5187 30.8982 26.2668 31.5277C26.1404 31.9044 26.0148 32.1555 25.8892 32.5339C25.2499 33.7488 24.2908 34.766 23.1154 35.4754C21.94 36.1849 20.5931 36.5597 19.2202 36.5594C16.3265 36.5594 13.8094 34.9237 12.6776 32.5339C12.5521 32.2819 12.4265 31.9044 12.3001 31.5269C12.049 30.8982 11.9234 30.1432 11.9234 29.3881V29.1362C11.9234 28.8842 11.9234 28.6323 12.049 28.5075C12.4265 24.7323 15.5722 21.713 19.473 21.713C23.3738 21.713 26.5195 24.7323 26.8962 28.5075C26.8962 28.7586 27.0218 29.0114 27.0218 29.1362C26.7698 29.2617 26.7698 29.2617 26.6443 29.3881ZM27.3985 31.6524C27.6505 30.8982 27.776 30.2687 27.776 29.5137H67.1581C67.1581 30.2687 67.2845 31.0238 67.5356 31.6533L27.3985 31.6524ZM83.1379 29.3881C83.1379 30.1423 83.0123 30.8982 82.7604 31.5277C82.6348 31.9044 82.5092 32.1555 82.3837 32.5339C81.1255 34.9246 78.6085 36.5594 75.8411 36.5594C74.4682 36.5597 73.1213 36.1849 71.9459 35.4754C70.7706 34.766 69.8114 33.7488 69.1721 32.5339C69.0457 32.2819 68.9201 31.9044 68.7945 31.5269C68.5426 30.8982 68.417 30.1432 68.417 29.3881V29.1362C68.417 28.8842 68.417 28.6323 68.5426 28.5075C68.9201 24.7323 72.0658 21.713 75.9666 21.713C79.8674 21.713 83.0123 24.7323 83.3899 28.5075C83.3899 28.7586 83.5154 29.0114 83.5154 29.1362C83.1379 29.2617 83.1379 29.2617 83.1379 29.3881ZM83.7674 31.6524C84.0193 30.8982 84.1449 30.2687 84.1449 29.5137H89.4294C87.7937 30.7718 85.9061 31.526 83.7674 31.6524ZM90.3108 28.5075H84.1449C83.7674 24.1036 80.1185 20.7068 75.7147 20.7068C71.3116 20.7068 67.662 24.1036 67.2845 28.5075H27.776C27.3985 24.1036 23.7497 20.7068 19.3458 20.7068C14.9428 20.7068 11.2931 24.1036 10.9156 28.5075H3.99546C2.73732 26.9974 1.98311 24.9843 1.98311 22.8455V21.5874H4.49937C4.7505 21.5874 5.00328 21.3354 5.00328 21.0835C5.00328 20.8323 4.7505 20.5796 4.49937 20.5796H1.98228V19.0703H6.25976C6.51172 19.0703 6.76367 18.8183 6.76367 18.5664C6.76367 18.3153 6.51172 18.0625 6.25976 18.0625H1.73115V15.9246C1.73115 13.0308 1.85672 5.98426 4.87606 2.96491C5.7575 1.95791 6.89006 1.58039 8.14737 1.58039H44.7628C51.5566 1.58039 58.352 3.21604 64.5171 6.10982L74.0799 10.7656C77.6023 12.5269 81.3775 14.037 85.0263 15.4206L88.1721 16.5532C89.5558 17.0571 90.5619 18.0633 91.3178 19.3214H86.9139C86.662 19.3214 86.41 19.5734 86.41 19.8253C86.41 20.0765 86.662 20.3293 86.9139 20.3293H91.8201C92.072 21.0835 92.1984 21.8385 92.1984 22.5927C92.324 24.9843 91.5689 26.8727 90.3108 28.5075Z" fill="black" stroke="black" stroke-width="0.3"/>
</svg>
