<svg width="20" height="20" viewBox="0 0 20 20" fill="none" xmlns="http://www.w3.org/2000/svg">
<path d="M10.0003 1.66663V3.74996M10.0003 1.66663C5.39795 1.66663 1.66699 5.39759 1.66699 9.99996M10.0003 1.66663C14.6027 1.66663 18.3337 5.39759 18.3337 9.99996M10.0003 16.25V18.3333M10.0003 18.3333C14.6027 18.3333 18.3337 14.6023 18.3337 9.99996M10.0003 18.3333C5.39795 18.3333 1.66699 14.6023 1.66699 9.99996M3.75033 9.99996H1.66699M18.3337 9.99996H16.2503M15.899 15.8986L14.4209 14.4205M4.10168 15.8986L5.58129 14.419M4.10168 4.16663L5.54873 5.61367M15.899 4.16663L11.2502 8.74996M11.667 9.99996C11.667 10.9204 10.9208 11.6666 10.0003 11.6666C9.07985 11.6666 8.33366 10.9204 8.33366 9.99996C8.33366 9.07949 9.07985 8.33329 10.0003 8.33329C10.9208 8.33329 11.667 9.07949 11.667 9.99996Z" stroke="black" stroke-width="1.5" stroke-linecap="round" stroke-linejoin="round"/>
</svg>
