<svg width="86" height="40" viewBox="0 0 86 40" fill="none" xmlns="http://www.w3.org/2000/svg">
<path d="M79.4024 15.485L64.1082 13.635C63.8607 13.635 63.7382 13.5117 63.6149 13.3883L54.8574 3.15082C54.1293 2.29266 53.2217 1.60485 52.1986 1.136C51.1755 0.667147 50.0619 0.428696 48.9365 0.437491H15.8815C14.6856 0.442167 13.5068 0.722832 12.4371 1.25763C11.3673 1.79243 10.4355 2.56693 9.71404 3.52082L1.94321 13.8817C1.2135 14.8375 0.822944 16.0092 0.833205 17.2117V26.8333C0.833205 30.0408 3.42404 32.5075 6.50737 32.5075H10.2074C11.3174 36.33 14.8949 39.1667 19.0882 39.1667C23.2815 39.1667 26.859 36.33 27.969 32.5067H59.6665C60.7782 36.33 64.3549 39.1667 68.5482 39.1667C72.7415 39.1667 76.319 36.33 77.429 32.5067H81.9924C84.089 32.5067 85.6932 30.78 85.6932 28.8067V23.0083C85.939 19.185 83.1024 15.9783 79.4024 15.485ZM9.83737 29.7933C9.83737 30.41 9.83737 30.9033 9.96154 31.52H6.50737C3.91737 31.52 1.94404 29.5467 1.8207 26.9567H10.3315C9.96154 27.82 9.83737 28.8067 9.83737 29.7933ZM27.3524 31.52C27.3524 31.6433 27.229 31.89 27.229 32.0133C27.229 32.1367 27.1049 32.3833 27.1049 32.5075C26.5578 34.1663 25.499 35.609 24.0807 36.6283C22.6623 37.6476 20.9573 38.1912 19.2107 38.1808C17.4641 38.1909 15.7593 37.6472 14.341 36.6277C12.9228 35.6082 11.8643 34.1655 11.3174 32.5067C11.3174 32.3833 11.1932 32.1367 11.1932 32.0133C11.1932 31.89 11.0699 31.6433 11.0699 31.52C10.9465 30.9033 10.9465 30.41 10.9465 29.7933C10.9465 28.8067 11.069 27.82 11.4399 26.9567C11.4399 26.8325 11.5632 26.5867 11.5632 26.4625C11.6874 26.3392 11.6874 26.0925 11.8099 25.9692C13.1665 23.2558 16.0032 21.4058 19.334 21.4058C22.5407 21.4058 25.3774 23.2558 26.8582 25.9692C26.9815 26.0925 26.9815 26.3392 27.1049 26.4625C27.2274 26.5867 27.2282 26.8325 27.2282 26.9567C27.5982 27.82 27.7215 28.8067 27.7215 29.7933C27.4749 30.41 27.4749 30.9033 27.3515 31.52H27.3524ZM59.4215 29.7933C59.4215 30.41 59.4215 30.9033 59.544 31.52H28.339C28.4624 30.9033 28.4624 30.41 28.4624 29.7933C28.4624 28.8067 28.339 27.9433 28.0924 26.9567H59.9149C59.5449 27.82 59.4215 28.8067 59.4215 29.7933ZM76.9357 31.52C76.9357 31.6433 76.8124 31.89 76.8124 32.0133C76.8124 32.1367 76.689 32.3833 76.689 32.5075C76.142 34.1663 75.0832 35.609 73.6648 36.6283C72.2465 37.6476 70.5415 38.1912 68.7949 38.1808C67.0482 38.1912 65.3432 37.6476 63.925 36.628C62.5067 35.6085 61.4482 34.1656 60.9015 32.5067C60.9015 32.3833 60.7782 32.1367 60.7782 32.0133C60.7782 31.89 60.654 31.6433 60.654 31.52C60.5315 30.9033 60.5315 30.41 60.5315 29.7933C60.5315 28.8067 60.654 27.82 61.024 26.9567C61.024 26.8325 61.1482 26.5867 61.1482 26.4625C61.2715 26.3392 61.2707 26.0925 61.394 25.9692C62.7507 23.2558 65.5882 21.4058 68.919 21.4058C72.1249 21.4058 74.9624 23.2558 76.4424 25.9692C76.5657 26.0925 76.5657 26.3392 76.689 26.4625C76.8115 26.5867 76.8124 26.8325 76.8124 26.9567C77.1824 27.82 77.3057 28.8067 77.3057 29.7933C77.059 30.41 77.059 30.9033 76.9357 31.52ZM84.9532 28.6833C84.9532 30.1633 83.7199 31.3958 82.2399 31.3958H77.9232C78.0457 30.7792 78.0457 30.2858 78.0457 29.6692C78.0457 28.6833 77.9224 27.8192 77.6749 26.8325H85.0765V28.6825L84.9532 28.6833ZM84.9532 25.97H77.1824C75.7024 22.6392 72.4957 20.42 68.6715 20.42C64.8482 20.42 61.6407 22.7625 60.1615 25.97H27.599C26.1182 22.6392 22.9115 20.42 19.0882 20.42C15.2649 20.42 12.0582 22.7625 10.5774 25.97H1.69737V22.7625H4.41071C4.65654 22.7625 4.90404 22.5167 4.90404 22.2692C4.90404 22.0217 4.65737 21.7758 4.41071 21.7758H1.69737V18.6925H4.41071C4.65654 18.6925 4.90404 18.4458 4.90404 18.1983C4.90404 17.9517 4.65737 17.705 4.41071 17.705H1.69737V17.0883C1.69737 16.1017 2.06737 15.1142 2.5607 14.375L10.3315 4.01416C11.5649 2.28749 13.5382 1.30082 15.7582 1.30082H48.814C50.7874 1.30082 52.6374 2.16499 53.994 3.64416L62.7499 13.8817C62.9974 14.2517 63.4899 14.4983 63.8599 14.4983L79.1549 16.3483C81.2515 16.595 82.979 17.8283 83.9657 19.555H79.649C79.4015 19.555 79.1549 19.8017 79.1549 20.0492C79.1549 20.2958 79.4015 20.5425 79.6482 20.5425H84.4582C84.7057 21.2825 84.8282 22.0225 84.8282 22.7625V25.97H84.9532Z" fill="black" stroke="black" stroke-width="0.3"/>
</svg>
