<svg width="103" height="40" viewBox="0 0 103 40" fill="none" xmlns="http://www.w3.org/2000/svg">
<path d="M94.5996 14.1268L79.777 13.5451C79.05 13.5451 78.1787 13.2546 77.5978 12.9642L66.4083 5.40854C61.6126 2.21114 56.09 0.466797 50.4222 0.466797H14.6744C12.0587 0.466797 9.58827 1.62854 7.99001 3.80854L1.88653 11.8016C1.15958 12.6729 0.869141 13.8364 0.869141 14.9981V22.5546C0.869141 28.659 5.81001 33.7442 12.0587 33.7442H13.2213C14.8196 37.0859 18.1622 39.5572 22.0857 39.5572C26.0083 39.5572 29.497 37.232 30.95 33.7442H73.3822C74.9804 37.0859 78.3231 39.5572 82.2465 39.5572C86.1709 39.5572 89.6578 37.232 91.1109 33.7442H91.4013C97.5048 33.7442 102.591 28.8033 102.591 22.5546C102.881 17.9051 99.2491 14.2711 94.5996 14.1268ZM12.93 32.5816H12.2039C8.27958 32.5816 4.79262 30.2564 3.19349 26.9146H13.0752C12.7848 27.7868 12.6387 28.8042 12.6387 29.8216C12.4935 30.6929 12.6387 31.7103 12.93 32.5816ZM30.3683 32.5816C30.2239 33.0181 30.0778 33.3085 29.9326 33.7442C29.1943 35.1476 28.0866 36.3226 26.729 37.1422C25.3715 37.9618 23.8158 38.3949 22.23 38.3946C18.8874 38.3946 15.9822 36.5051 14.6735 33.7442C14.5283 33.4538 14.3831 33.0172 14.2378 32.5816C13.9474 31.7103 13.657 30.6929 13.657 29.6755C13.657 28.6581 13.8022 27.6407 14.2378 26.7694C14.3822 26.3329 14.5283 26.0424 14.6744 25.6068C16.1265 22.8459 19.0335 20.9572 22.2309 20.9572C25.5726 20.9572 28.3335 22.8459 29.7874 25.6068C29.9326 25.8972 30.077 26.3338 30.2222 26.7694C30.5135 27.6407 30.8048 28.6581 30.8048 29.6755C30.8048 30.6929 30.6596 31.7103 30.3683 32.5816ZM73.2378 32.5816H31.5309C31.8213 31.7103 31.9674 30.6929 31.9674 29.6755C31.9674 28.6581 31.8213 27.6407 31.5309 26.7694H73.237C72.9465 27.6407 72.8022 28.6581 72.8022 29.6755C72.8022 30.6929 72.9474 31.7103 73.2378 32.5816ZM90.6761 32.5816C90.5309 33.0181 90.3848 33.3085 90.2404 33.7442C88.7865 36.5051 85.8804 38.3946 82.6839 38.3946C81.0982 38.3948 79.5425 37.9617 78.185 37.1421C76.8275 36.3225 75.7197 35.1475 74.9813 33.7442C74.8361 33.4538 74.6909 33.0172 74.5457 32.5816C74.2552 31.7103 73.9639 30.6929 73.9639 29.6755C73.9639 28.6581 74.11 27.6407 74.5457 26.7694C74.6909 26.3329 74.8361 26.0424 74.9813 25.6068C76.4344 22.8459 79.3413 20.9572 82.5378 20.9572C85.8804 20.9572 88.6413 22.8459 90.0944 25.6068C90.2404 25.8972 90.3848 26.3338 90.5309 26.7694C90.8213 27.6407 91.1118 28.6581 91.1118 29.6755C91.1118 30.6929 90.9665 31.7103 90.6761 32.5816ZM91.8387 32.5816C92.1291 31.7103 92.2744 30.6929 92.2744 29.6755C92.2744 28.6581 92.1291 27.6407 91.8387 26.7694H100.703C99.8976 28.4557 98.6455 29.889 97.0827 30.9137C95.52 31.9384 93.7063 32.5152 91.8387 32.5816ZM91.4022 25.752C89.8039 22.4094 86.4622 19.939 82.5378 19.939C78.6144 19.939 75.1265 22.2642 73.6735 25.752H31.0952C29.497 22.4094 26.1552 19.939 22.2309 19.939C18.3074 19.939 14.8196 22.2642 13.3665 25.752H2.61349C2.31589 24.8623 2.16837 23.9293 2.17697 22.9911H5.08392C5.23464 22.9806 5.37646 22.9159 5.48321 22.809C5.58997 22.7021 5.65446 22.5601 5.66479 22.4094C5.65426 22.2588 5.58968 22.1171 5.48294 22.0104C5.37621 21.9037 5.2345 21.8391 5.08392 21.8285H2.17697V18.1955H5.08392C5.23464 18.1849 5.37646 18.1202 5.48321 18.0133C5.58997 17.9064 5.65446 17.7645 5.66479 17.6138C5.65426 17.4632 5.58968 17.3215 5.48294 17.2147C5.37621 17.108 5.2345 17.0434 5.08392 17.0329H2.17697V14.9981C2.17821 14.0996 2.48587 13.2285 3.04914 12.5285L9.15262 4.53549C10.4604 2.79114 12.6396 1.62854 14.8196 1.62854H50.5683C56.09 1.62854 61.3213 3.22767 65.9726 6.27897L77.1622 13.8355C78.0335 14.2711 78.9057 14.5624 79.9231 14.7068L94.7457 15.2877C97.3613 15.4329 99.5413 16.7407 100.704 18.7755H95.0361C94.8855 18.7864 94.7439 18.8512 94.6372 18.9581C94.5305 19.0649 94.4659 19.2066 94.4552 19.3572C94.4663 19.5076 94.5311 19.649 94.6377 19.7557C94.7443 19.8623 94.8857 19.927 95.0361 19.9381H101.285C101.575 20.8094 101.866 21.6824 101.866 22.699C101.866 23.8607 101.721 24.8781 101.285 25.8955H91.4031V25.7503L91.4022 25.752Z" fill="black" stroke="black" stroke-width="0.3"/>
</svg>
